# 3ds Max Wavefront OBJ Exporter v0.97b - (c)2007 guruware
# File Created: 22.11.2017 19:04:35

mtllib 102720.mtl

#
# object Box058
#

v  2.3561 5.3763 1.0540
v  1.3181 5.3763 1.0540
v  2.9858 5.3763 -0.7212
v  2.3561 5.3763 4.9792
v  4.2049 5.3763 -0.5588
v  5.0757 5.3763 -0.0719
v  5.7723 5.3763 1.8758
v  5.5981 5.3763 0.7396
v  4.2049 5.3763 6.3967
v  5.7723 5.3763 3.9620
v  5.5981 5.3763 5.0982
v  5.0757 5.3763 5.9097
v  1.3181 5.3763 4.9792
v  -3.9920 5.3763 6.5590
v  2.9858 5.3763 6.5590
v  -3.9920 5.3763 -0.7212
v  -3.9920 6.0533 6.5590
v  -3.9920 6.0533 -0.7212
v  2.9858 6.0533 -0.7212
v  4.2049 6.0533 -0.5588
v  5.0757 6.0533 -0.0719
v  5.5981 6.0533 0.7396
v  5.7723 6.0533 1.8758
v  5.7723 6.0533 3.9620
v  5.5981 6.0533 5.0982
v  5.0757 6.0533 5.9097
v  4.2049 6.0533 6.3967
v  2.9858 6.0533 6.5590
v  2.3561 6.0533 1.0540
v  1.3181 6.0533 1.0540
v  2.3561 6.0533 4.9792
v  1.3181 6.0533 4.9792
v  -3.9977 4.5221 -2.2319
v  4.1659 4.5221 -2.2319
v  1.3181 4.5221 1.0540
v  -3.9977 4.5221 7.9408
v  2.3561 4.5221 1.0540
v  2.3561 4.5221 4.9792
v  5.5921 4.5221 -2.0051
v  6.6109 4.5221 -1.3247
v  7.4259 4.5221 1.3969
v  7.2221 4.5221 -0.1907
v  5.5921 4.5221 7.7140
v  7.4259 4.5221 4.3120
v  7.2221 4.5221 5.8996
v  6.6109 4.5221 7.0336
v  1.3181 4.5221 4.9792
v  4.1659 4.5221 7.9408
v  -3.9977 5.3760 7.9408
v  -3.9977 5.3760 -2.2319
v  4.1659 5.3760 -2.2319
v  5.5921 5.3760 -2.0051
v  6.6109 5.3760 -1.3247
v  7.2221 5.3760 -0.1907
v  7.4259 5.3760 1.3969
v  7.4259 5.3760 4.3120
v  7.2221 5.3760 5.8996
v  6.6109 5.3760 7.0336
v  5.5921 5.3760 7.7140
v  4.1659 5.3760 7.9408
v  2.3561 5.3760 1.0540
v  1.3181 5.3760 1.0540
v  2.3561 5.3760 4.9792
v  1.3181 5.3760 4.9792
# 64 vertices

vn -0.5774 0.5774 0.5774
vn 0.5774 0.5774 0.5774
vn 0.0630 -0.6881 -0.7229
vn -0.3015 -0.9045 -0.3015
vn 0.2961 -0.6591 -0.6914
vn 0.5790 -0.6572 -0.4825
vn 0.7185 -0.6943 -0.0416
vn 0.7115 -0.6711 -0.2084
vn 0.2961 -0.6591 0.6913
vn 0.7185 -0.6943 0.0416
vn 0.7115 -0.6711 0.2084
vn 0.5790 -0.6572 0.4825
vn 0.3015 -0.9045 -0.3015
vn -0.5774 -0.5774 0.5774
vn 0.0630 -0.6881 0.7229
vn -0.5774 -0.5774 -0.5774
vn -0.5774 0.5774 -0.5774
vn 0.0630 0.6881 -0.7229
vn 0.2961 0.6591 -0.6914
vn 0.5790 0.6572 -0.4825
vn 0.7115 0.6711 -0.2084
vn 0.7185 0.6943 -0.0416
vn 0.7185 0.6943 0.0416
vn 0.7115 0.6711 0.2084
vn 0.5790 0.6572 0.4825
vn 0.2961 0.6591 0.6913
vn 0.0630 0.6881 0.7229
vn -0.3015 0.9045 0.3015
vn 0.3015 0.9045 0.3015
vn -0.3015 0.9045 -0.3015
vn 0.3015 0.9045 -0.3015
vn 0.0752 -0.6846 -0.7250
vn 0.3389 -0.6540 -0.6764
vn 0.6127 -0.6592 -0.4359
vn 0.7169 -0.6964 -0.0348
vn 0.7154 -0.6759 -0.1769
vn 0.3389 -0.6540 0.6764
vn 0.7169 -0.6964 0.0348
vn 0.7154 -0.6759 0.1770
vn 0.6128 -0.6591 0.4359
vn 0.0752 -0.6846 0.7250
vn 0.0752 0.6846 -0.7250
vn 0.3389 0.6540 -0.6764
vn 0.6127 0.6592 -0.4359
vn 0.7154 0.6759 -0.1769
vn 0.7169 0.6964 -0.0348
vn 0.7169 0.6964 0.0348
vn 0.7154 0.6759 0.1770
vn 0.6128 0.6591 0.4359
vn 0.3389 0.6540 0.6764
vn 0.0752 0.6846 0.7250
# 51 vertex normals

vt 0.5200 1.5998 0.0000
vt 0.5200 1.3382 0.0000
vt 1.0000 1.7584 0.0000
vt -0.5414 1.5998 0.0000
vt 0.9561 2.0656 0.0000
vt 0.8244 2.2851 0.0000
vt 0.2978 2.4606 0.0000
vt 0.6050 2.4167 0.0000
vt -0.9246 2.0656 0.0000
vt -0.2663 2.4606 0.0000
vt -0.5735 2.4167 0.0000
vt -0.7930 2.2851 0.0000
vt -0.5414 1.3382 0.0000
vt -0.9685 0.0000 0.0000
vt -0.9685 1.7584 0.0000
vt 1.0000 0.0000 0.0000
vt 1.9685 0.0000 0.0000
vt 1.9685 0.1961 0.0000
vt 0.0000 0.1961 0.0000
vt 0.0000 0.0000 0.0000
vt 2.4606 0.0000 0.0000
vt 2.4606 0.1961 0.0000
vt 0.7022 0.1961 0.0000
vt 0.7022 0.0000 0.0000
vt 0.4651 0.1961 0.0000
vt 0.4651 -0.0000 0.0000
vt 0.2279 0.1961 0.0000
vt 0.2279 -0.0000 0.0000
vt -0.0092 0.1961 0.0000
vt -0.0092 -0.0000 0.0000
vt -0.2463 0.1961 0.0000
vt -0.2463 -0.0000 0.0000
vt 1.2663 0.0000 0.0000
vt 1.2663 0.1961 0.0000
vt 0.4196 0.1961 0.0000
vt 0.4196 -0.0000 0.0000
vt 0.1369 0.1961 0.0000
vt 0.1369 -0.0000 0.0000
vt -0.1457 0.1961 0.0000
vt -0.1457 -0.0000 0.0000
vt -0.4284 0.1961 0.0000
vt -0.4284 -0.0000 0.0000
vt 1.7584 0.0000 0.0000
vt 1.7584 0.1961 0.0000
vt 1.9685 1.7584 0.0000
vt 1.9246 2.0656 0.0000
vt 1.5735 2.4167 0.0000
vt 1.7930 2.2851 0.0000
vt 1.2663 2.4606 0.0000
vt 0.7022 2.4606 0.0000
vt 0.1756 2.2851 0.0000
vt 0.3950 2.4167 0.0000
vt 0.0439 2.0656 0.0000
vt 0.0000 1.7584 0.0000
vt 0.4800 1.5998 0.0000
vt 0.4800 1.3382 0.0000
vt 1.5414 1.5998 0.0000
vt 1.5414 1.3382 0.0000
vt 0.0000 0.2205 0.0000
vt 0.0000 0.3835 0.0000
vt 0.9449 0.3835 0.0000
vt 0.9449 0.2205 0.0000
vt 0.2499 0.3835 0.0000
vt 0.2499 0.2205 0.0000
vt 0.3641 1.1450 0.0000
vt 0.3641 1.3686 0.0000
vt -0.3954 1.3686 0.0000
vt -0.3954 1.1450 0.0000
vt 0.6359 1.3686 0.0000
vt 0.6359 1.1450 0.0000
vt 1.3954 1.3686 0.0000
vt 1.3954 1.1450 0.0000
vt 0.0000 0.0149 0.0000
vt 0.0000 0.2204 0.0000
vt 0.9449 0.2204 0.0000
vt 0.9449 0.0149 0.0000
vt 0.2499 0.2204 0.0000
vt 0.2499 0.0149 0.0000
# 78 texture coords

o Box058
g Box058
usemtl wire_088144225
s 1
f 1/1/1 2/2/2 3/3/3 4/4/4 
f 3/3/3 5/5/5 6/6/6 7/7/7 
f 6/6/6 8/8/8 7/7/7 
f 4/4/4 3/3/3 7/7/7 9/9/9 
f 7/7/7 10/10/10 11/11/11 9/9/9 
f 11/11/11 12/12/12 9/9/9 
f 13/13/13 4/4/4 9/9/9 14/14/14 
f 9/9/9 15/15/15 14/14/14 
f 2/2/2 13/13/13 14/14/14 3/3/3 
f 16/16/16 3/3/3 14/14/14 
s 2
f 14/17/14 17/18/1 18/19/17 16/20/16 
s 4
f 16/21/16 18/22/17 19/23/18 3/24/3 
f 3/24/3 19/23/18 20/25/19 5/26/5 
f 5/26/5 20/25/19 21/27/20 6/28/6 
f 6/28/6 21/27/20 22/29/21 8/30/8 
f 8/30/8 22/29/21 23/31/22 7/32/7 
f 7/33/7 23/34/22 24/23/23 10/24/10 
f 10/24/10 24/23/23 25/35/24 11/36/11 
f 11/36/11 25/35/24 26/37/25 12/38/12 
f 12/38/12 26/37/25 27/39/26 9/40/9 
f 9/40/9 27/39/26 28/41/27 15/42/15 
f 15/43/15 28/44/27 17/19/1 14/20/14 
s 1
f 17/17/1 28/45/27 27/46/26 25/47/24 
f 27/46/26 26/48/25 25/47/24 
f 25/47/24 24/49/23 23/50/22 21/51/20 
f 23/50/22 22/52/21 21/51/20 
f 21/51/20 20/53/19 19/54/18 29/55/28 
f 19/54/18 30/56/29 29/55/28 
f 25/47/24 21/51/20 29/55/28 31/57/30 
f 17/17/1 25/47/24 31/57/30 32/58/31 
f 18/20/17 17/17/1 32/58/31 30/56/29 
f 18/20/17 30/56/29 19/54/18 
s 512
f 2/59/2 30/60/29 32/61/31 13/62/13 
s 1024
f 13/59/13 32/60/31 31/63/30 4/64/4 
s 64
f 1/59/1 29/60/28 30/63/29 2/64/2 
s 2048
f 4/59/4 31/60/30 29/61/28 1/62/1 
s 8
f 33/16/16 34/3/32 35/65/2 36/14/14 
f 37/66/1 35/65/2 34/3/32 38/67/4 
f 34/3/32 39/5/33 40/6/34 41/7/35 
f 40/6/34 42/8/36 41/7/35 
f 38/67/4 34/3/32 41/7/35 43/9/37 
f 41/7/35 44/10/38 45/11/39 43/9/37 
f 45/11/39 46/12/40 43/9/37 
f 47/68/13 38/67/4 43/9/37 36/14/14 
f 43/9/37 48/15/41 36/14/14 
f 35/65/2 47/68/13 36/14/14 
s 16
f 36/17/14 49/18/1 50/19/17 33/20/16 
s 32
f 33/21/16 50/22/17 51/23/42 34/24/32 
f 34/24/32 51/23/42 52/25/43 39/26/33 
f 39/26/33 52/25/43 53/27/44 40/28/34 
f 40/28/34 53/27/44 54/29/45 42/30/36 
f 42/30/36 54/29/45 55/31/46 41/32/35 
f 41/33/35 55/34/46 56/23/47 44/24/38 
f 44/24/38 56/23/47 57/35/48 45/36/39 
f 45/36/39 57/35/48 58/37/49 46/38/40 
f 46/38/40 58/37/49 59/39/50 43/40/37 
f 43/40/37 59/39/50 60/41/51 48/42/41 
f 48/43/41 60/44/51 49/19/1 36/20/14 
s 8
f 49/17/1 60/45/51 59/46/50 57/47/48 
f 59/46/50 58/48/49 57/47/48 
f 57/47/48 56/49/47 55/50/46 53/51/44 
f 55/50/46 54/52/45 53/51/44 
f 53/51/44 52/53/43 51/54/42 61/69/28 
f 51/54/42 62/70/29 61/69/28 
f 57/47/48 53/51/44 61/69/28 63/71/30 
f 49/17/1 57/47/48 63/71/30 64/72/31 
f 50/20/17 49/17/1 64/72/31 62/70/29 
f 50/20/17 62/70/29 51/54/42 
s 512
f 35/73/2 62/74/29 64/75/31 47/76/13 
s 1024
f 47/73/13 64/74/31 63/77/30 38/78/4 
s 64
f 37/73/1 61/74/28 62/77/29 35/78/2 
s 2048
f 38/73/4 63/74/30 61/75/28 37/76/1 
# 56 polygons - 16 triangles

#
# object Box059
#

v  -3.9974 4.5278 6.4301
v  -3.9974 8.3942 3.2113
v  -3.9974 8.3942 2.1733
v  -3.9974 12.3195 2.1733
v  -3.9974 12.3195 3.2113
v  -3.9974 11.5055 6.4301
v  -3.9974 12.7246 6.2678
v  -3.9974 13.5954 5.7808
v  -3.9974 14.1179 4.9693
v  -3.9974 14.2920 3.8331
v  -3.9974 14.2920 1.7469
v  -3.9974 14.1179 0.6107
v  -3.9974 13.5954 -0.2008
v  -3.9974 12.7246 -0.6877
v  -3.9974 11.5055 -0.8500
v  -3.9974 4.5278 -0.8500
v  -3.3203 4.5278 -0.8500
v  -3.3203 4.5278 6.4301
v  -3.3203 11.5055 6.4301
v  -3.3203 12.7246 6.2678
v  -3.3203 13.5954 5.7808
v  -3.3203 14.1179 4.9693
v  -3.3203 14.2920 3.8331
v  -3.3203 14.2920 1.7469
v  -3.3203 14.1179 0.6107
v  -3.3203 13.5954 -0.2008
v  -3.3203 12.7246 -0.6877
v  -3.3203 11.5055 -0.8500
v  -3.3203 8.3942 3.2113
v  -3.3203 12.3095 3.2112
v  -3.3203 12.3294 2.1733
v  -3.3203 8.3942 2.1733
v  -4.8516 4.5221 7.9408
v  -4.8516 8.3942 3.2113
v  -4.8516 8.3942 2.1733
v  -4.8516 12.3195 2.1733
v  -4.8516 12.3195 3.2113
v  -4.8516 12.6856 7.9408
v  -4.8516 14.1119 7.7140
v  -4.8516 15.1306 7.0336
v  -4.8516 15.7419 5.8996
v  -4.8516 15.9456 4.3120
v  -4.8516 15.9456 1.3969
v  -4.8516 15.7419 -0.1907
v  -4.8516 15.1306 -1.3246
v  -4.8516 14.1119 -2.0050
v  -4.8516 12.6856 -2.2318
v  -4.8516 4.5221 -2.2318
v  -3.9977 4.5221 -2.2318
v  -3.9977 4.5221 7.9408
v  -3.9977 12.6856 7.9408
v  -3.9977 14.1119 7.7140
v  -3.9977 15.1306 7.0336
v  -3.9977 15.7419 5.8996
v  -3.9977 15.9456 4.3120
v  -3.9977 15.9456 1.3969
v  -3.9977 15.7419 -0.1907
v  -3.9977 15.1306 -1.3246
v  -3.9977 14.1119 -2.0050
v  -3.9977 12.6856 -2.2318
v  -3.9977 8.3942 3.2113
v  -3.9977 12.3195 3.2113
v  -3.9977 12.3195 2.1733
v  -3.9977 8.3942 2.1733
# 64 vertices

vn -0.5538 -0.5888 0.5888
vn -0.9077 0.2967 -0.2967
vn 0.5774 0.5774 0.5774
vn 0.5807 -0.5733 0.5781
vn 0.5740 -0.5813 -0.5768
vn -0.6881 0.0630 0.7229
vn -0.6591 0.2961 0.6913
vn -0.6572 0.5790 0.4825
vn -0.6711 0.7115 0.2084
vn -0.6943 0.7185 0.0416
vn -0.6943 0.7185 -0.0416
vn -0.6711 0.7115 -0.2084
vn -0.6572 0.5790 -0.4825
vn -0.6591 0.2961 -0.6913
vn -0.6881 0.0630 -0.7229
vn -0.5774 -0.5774 -0.5774
vn 0.5774 -0.5774 -0.5774
vn 0.5996 -0.5659 0.5659
vn 0.6881 0.0630 0.7229
vn 0.6591 0.2961 0.6913
vn 0.6572 0.5790 0.4825
vn 0.6711 0.7115 0.2084
vn 0.6943 0.7185 0.0416
vn 0.6943 0.7185 -0.0416
vn 0.6711 0.7115 -0.2084
vn 0.6572 0.5790 -0.4825
vn 0.6591 0.2961 -0.6913
vn 0.6881 0.0630 -0.7229
vn 0.9012 0.3065 -0.3065
vn -0.5815 -0.5687 -0.5817
vn -0.5732 -0.5860 0.5728
vn -0.5774 0.5773 0.5774
vn -0.4473 -0.6324 0.6324
vn -0.9188 0.2791 -0.2791
vn 0.5774 -0.5774 0.5774
vn 0.5774 -0.5773 -0.5774
vn -0.6846 0.0752 0.7250
vn -0.6540 0.3388 0.6763
vn -0.6592 0.6128 0.4359
vn -0.6759 0.7154 0.1770
vn -0.6964 0.7169 0.0348
vn -0.6964 0.7169 -0.0348
vn -0.6759 0.7154 -0.1770
vn -0.6591 0.6128 -0.4359
vn -0.6540 0.3389 -0.6764
vn -0.6846 0.0752 -0.7250
vn 0.6747 -0.5219 0.5219
vn 0.6846 0.0752 0.7250
vn 0.6540 0.3388 0.6763
vn 0.6592 0.6128 0.4359
vn 0.6759 0.7154 0.1770
vn 0.6964 0.7169 0.0348
vn 0.6964 0.7169 -0.0348
vn 0.6759 0.7154 -0.1770
vn 0.6591 0.6128 -0.4359
vn 0.6540 0.3389 -0.6764
vn 0.6846 0.0752 -0.7250
vn 0.8864 0.3274 -0.3274
vn -0.5774 -0.5773 -0.5774
vn -0.5774 -0.5774 0.5774
vn -0.5774 0.5774 0.5774
# 61 vertex normals

vt 1.0000 0.0000 0.0000
vt 0.1297 0.9744 0.0000
vt -0.1510 0.9744 0.0000
vt -0.1510 1.9635 0.0000
vt 0.1297 1.9635 0.0000
vt 1.0000 1.7584 0.0000
vt 0.9561 2.0656 0.0000
vt 0.8244 2.2851 0.0000
vt 0.6050 2.4167 0.0000
vt 0.2978 2.4606 0.0000
vt -0.2663 2.4606 0.0000
vt -0.5735 2.4167 0.0000
vt -0.7930 2.2851 0.0000
vt -0.9246 2.0656 0.0000
vt -0.9685 1.7584 0.0000
vt -0.9685 0.0000 0.0000
vt 0.0000 0.0000 0.0000
vt 1.9685 0.0000 0.0000
vt 1.9685 0.1961 0.0000
vt 0.0000 0.1961 0.0000
vt 0.7022 0.0000 0.0000
vt 2.4606 0.0000 0.0000
vt 2.4606 0.1961 0.0000
vt 0.7022 0.1961 0.0000
vt 0.4651 -0.0000 0.0000
vt 0.4651 0.1961 0.0000
vt 0.2279 -0.0000 0.0000
vt 0.2279 0.1961 0.0000
vt -0.0092 -0.0000 0.0000
vt -0.0092 0.1961 0.0000
vt -0.2463 -0.0000 0.0000
vt -0.2463 0.1961 0.0000
vt 1.2663 0.0000 0.0000
vt 1.2663 0.1961 0.0000
vt 0.4196 -0.0000 0.0000
vt 0.4196 0.1961 0.0000
vt 0.1369 -0.0000 0.0000
vt 0.1369 0.1961 0.0000
vt -0.1457 -0.0000 0.0000
vt -0.1457 0.1961 0.0000
vt -0.4284 -0.0000 0.0000
vt -0.4284 0.1961 0.0000
vt 1.7584 0.0000 0.0000
vt 1.7584 0.1961 0.0000
vt 0.8703 0.9744 0.0000
vt 0.8703 1.9635 0.0000
vt 1.1510 1.9635 0.0000
vt 1.1510 0.9744 0.0000
vt 1.9685 1.7584 0.0000
vt 1.9246 2.0656 0.0000
vt 1.7930 2.2851 0.0000
vt 1.5735 2.4167 0.0000
vt 1.2663 2.4606 0.0000
vt 0.7022 2.4606 0.0000
vt 0.3950 2.4167 0.0000
vt 0.1756 2.2851 0.0000
vt 0.0439 2.0656 0.0000
vt 0.0000 1.7584 0.0000
vt 0.9449 0.2205 0.0000
vt 0.0000 0.2205 0.0000
vt 0.0000 0.3835 0.0000
vt 0.9449 0.3835 0.0000
vt 0.2499 0.2205 0.0000
vt 0.2499 0.3835 0.0000
vt 0.0848 0.8341 0.0000
vt -0.1161 0.8341 0.0000
vt -0.1161 1.6796 0.0000
vt 0.0848 1.6796 0.0000
vt 0.9152 0.8341 0.0000
vt 0.9152 1.6796 0.0000
vt 1.1161 1.6796 0.0000
vt 1.1161 0.8341 0.0000
vt 0.9449 0.0149 0.0000
vt 0.0000 0.0149 0.0000
vt 0.0000 0.2204 0.0000
vt 0.9449 0.2204 0.0000
vt 0.2499 0.0149 0.0000
vt 0.2499 0.2204 0.0000
# 78 texture coords

o Box059
g Box059
usemtl wire_088144225
s 1
f 65/79/52 66/80/53 67/81/54 68/82/55 69/83/56 66/80/53 65/79/52 70/84/57 71/85/58 72/86/59 73/87/60 74/88/61 75/89/62 76/90/63 77/91/64 78/92/65 79/93/66 80/94/67 
s 2
f 65/95/52 80/96/67 81/97/68 82/98/69 
s 4
f 70/99/57 65/100/52 82/101/69 83/102/70 
f 71/103/58 70/99/57 83/102/70 84/104/71 
f 72/105/59 71/103/58 84/104/71 85/106/72 
f 73/107/60 72/105/59 85/106/72 86/108/73 
f 74/109/61 73/107/60 86/108/73 87/110/74 
f 75/99/62 74/111/61 87/112/74 88/102/75 
f 76/113/63 75/99/62 88/102/75 89/114/76 
f 77/115/64 76/113/63 89/114/76 90/116/77 
f 78/117/65 77/115/64 90/116/77 91/118/78 
f 79/119/66 78/117/65 91/118/78 92/120/79 
f 80/95/67 79/121/66 92/122/79 81/98/68 
s 1
f 82/95/69 93/123/80 94/124/81 95/125/82 96/126/83 93/123/80 82/95/69 81/96/68 92/127/79 91/128/78 90/129/77 89/130/76 88/131/75 87/132/74 86/133/73 85/134/72 84/135/71 83/136/70 
s 512
f 68/137/55 67/138/54 96/139/83 95/140/82 
s 1024
f 69/141/56 68/138/55 95/139/82 94/142/81 
s 64
f 67/141/54 66/138/53 93/139/80 96/142/83 
s 2048
f 66/137/53 69/138/56 94/139/81 93/140/80 
s 8
f 97/79/84 98/143/85 99/144/54 100/145/86 101/146/87 98/143/85 97/79/84 102/84/88 103/85/89 104/86/90 105/87/91 106/88/92 107/89/93 108/90/94 109/91/95 110/92/96 111/93/97 112/94/67 
s 16
f 97/95/84 112/96/67 113/97/68 114/98/98 
s 32
f 102/99/88 97/100/84 114/101/98 115/102/99 
f 103/103/89 102/99/88 115/102/99 116/104/100 
f 104/105/90 103/103/89 116/104/100 117/106/101 
f 105/107/91 104/105/90 117/106/101 118/108/102 
f 106/109/92 105/107/91 118/108/102 119/110/103 
f 107/99/93 106/111/92 119/112/103 120/102/104 
f 108/113/94 107/99/93 120/102/104 121/114/105 
f 109/115/95 108/113/94 121/114/105 122/116/106 
f 110/117/96 109/115/95 122/116/106 123/118/107 
f 111/119/97 110/117/96 123/118/107 124/120/108 
f 112/95/67 111/121/97 124/122/108 113/98/68 
s 8
f 114/95/98 125/147/109 126/148/110 127/149/111 128/150/112 125/147/109 114/95/98 113/96/68 124/127/108 123/128/107 122/129/106 121/130/105 120/131/104 119/132/103 118/133/102 117/134/101 116/135/100 115/136/99 
s 512
f 100/151/86 99/152/54 128/153/112 127/154/111 
s 1024
f 101/155/87 100/152/86 127/153/111 126/156/110 
s 64
f 99/155/54 98/152/85 125/153/109 128/156/112 
s 2048
f 98/151/85 101/152/87 126/153/110 125/154/109 
# 36 polygons

